<?xml version="1.0" encoding="UTF-8"?><svg id="Layer_1" xmlns="http://www.w3.org/2000/svg" viewBox="0 0 494.78 113.33"><defs><style>.cls-1{fill:#fff;}.cls-2{fill:#f07f79;}.cls-3{fill:#e6e6e6;}.cls-4,.cls-5{stroke-linecap:round;}.cls-4,.cls-5,.cls-6{fill:none;stroke:#000;stroke-miterlimit:10;}.cls-4,.cls-6{stroke-width:.5px;}.cls-7{fill:#b7bf94;}.cls-5{isolation:isolate;opacity:.25;stroke-width:6.21px;}</style></defs><g id="Group_456"><path id="Rectangle_316" class="cls-7" d="M56.66,0H438.12c31.29,0,56.66,25.37,56.66,56.66h0c0,31.29-25.37,56.66-56.66,56.66H56.66C25.37,113.33,0,87.96,0,56.66H0C0,25.37,25.37,0,56.66,0Z"/><line id="Line_79" class="cls-5" x1="46.47" y1="82.46" x2="460.21" y2="82.46"/><g id="Group_452"><circle id="Ellipse_228" class="cls-2" cx="48.89" cy="52.63" r="12.79"/></g><g id="Group_453"><path id="Path_1150" class="cls-2" d="M438.15,27.92c-26.34-4.73-53.08-6.83-79.83-6.25-19.13,.96-38.17,3.23-56.98,6.8-7.99,1.4-15.96,2.87-24,3.96l7.28-.99c-24.71,3.28-50.3,1.62-74.92-1.67l7.28,.99c-15.7-2.13-31.29-5.17-47.11-6.31-7.4-.63-14.84-.72-22.25-.25-9.48,.72-18.89,2.33-28.31,3.6l7.28-.99c-18.94,2.63-38.14,2.74-57.11,.33l7.28,.99-1.47-.2c-7.63-1.05-14.16-1.3-21.1,2.76-13.06,7.63-17.46,24.4-9.83,37.46h0c3.57,5.54,9.52,11.65,16.36,12.59,15.71,2.47,31.62,3.38,47.51,2.72,12.18-.74,24.24-2.69,36.33-4.33l-7.28,.99c15.44-1.89,31.06-1.7,46.44,.56l-7.28-.98c22.46,3.07,44.69,6.88,67.4,7.76,11.13,.63,22.3,.5,33.41-.38,10-.97,19.96-2.52,29.86-4.25,9.72-1.69,19.43-3.46,29.21-4.81l-7.28,.99c29.08-3.69,58.52-3.49,87.55,.58l-7.28-.99c4.77,.64,9.53,1.36,14.27,2.14,7.49,1.22,14.32,1.21,21.1-2.76,13.06-7.63,17.46-24.4,9.83-37.46h0c-3.63-5.63-9.47-11.46-16.37-12.59h0Z"/></g><g id="Group_454"><circle id="Ellipse_229" class="cls-1" cx="48.89" cy="52.63" r="8.1"/><circle id="Ellipse_230" cx="50.88" cy="53.83" r="5.93"/></g><g id="Group_455"><circle id="Ellipse_231" class="cls-1" cx="75.37" cy="51.87" r="8.1"/><circle id="Ellipse_232" cx="77.64" cy="53.22" r="5.83"/></g><path id="Path_1151" class="cls-4" d="M58.69,63.8c.72,1.66,2.4,2.68,4.21,2.57,1.79-.09,3.33-1.32,3.81-3.05"/><circle id="Ellipse_233" class="cls-3" cx="77.6" cy="51.87" r="2.19"/><circle id="Ellipse_234" class="cls-6" cx="47.9" cy="52.63" r="11.38"/><circle id="Ellipse_235" class="cls-6" cx="75.37" cy="51.2" r="11.38"/><line id="Line_80" class="cls-6" x1="59.28" y1="52.63" x2="63.99" y2="52.63"/><circle id="Ellipse_236" class="cls-1" cx="79.79" cy="51.2" r="1.42"/><circle id="Ellipse_237" class="cls-3" cx="51.08" cy="52.63" r="2.19"/><circle id="Ellipse_238" class="cls-1" cx="53.27" cy="51.96" r="1.42"/></g></svg>